<svg width="72" height="72" viewBox="0 0 72 72" fill="none" xmlns="http://www.w3.org/2000/svg">
<rect width="72" height="72" rx="20" fill="white"/>
<path fill-rule="evenodd" clip-rule="evenodd" d="M15.37 40.8499L15.4279 40.8555C15.5051 40.87 15.5824 40.9101 15.6598 40.9501C21.698 44.6 29.1854 46.7999 36.9145 46.7999L37.3274 46.7975C42.4335 46.7386 48.0183 45.5896 53.1451 43.35C53.2819 43.2917 53.4148 43.268 53.5374 43.272L53.5892 43.2753C54.1697 43.3319 54.4862 44.0143 53.8213 44.5001C49.1358 48.1 42.3246 50 36.4312 50C28.2194 50 20.7801 46.8501 15.1768 41.5999C14.8385 41.25 15.0318 40.8499 15.37 40.8499ZM54.9807 40.0001C56.43 40.0001 57.5893 40.3 57.8309 40.5999C58.3622 41.3 57.6859 45.8499 55.1739 48.0501C55.0471 48.1375 54.9286 48.1867 54.8278 48.2014L54.7857 48.2056L54.746 48.2056C54.5536 48.1953 54.4555 48.0312 54.5461 47.7501C55.1257 46.3002 56.3815 42.9999 55.802 42.2C55.5229 41.8445 54.6999 41.726 53.7401 41.7215L53.5952 41.7217C52.4283 41.7298 51.0938 41.8933 50.2951 42L50.2425 42.0039C49.8532 42.0168 49.7819 41.6376 50.1986 41.3499C51.5994 40.35 53.4351 40.0001 54.9807 40.0001ZM42.6144 27.4501C43.3391 27.4501 44.0637 27.6002 44.7882 27.8499C44.933 27.9001 45.0298 27.9501 45.078 28.05C45.1263 28.1501 45.1745 28.25 45.1745 28.4001V28.9001C45.1745 29.1001 45.078 29.2 44.933 29.2C44.8848 29.2 44.74 29.1501 44.5467 29.1001C43.9669 28.9001 43.3391 28.7999 42.7111 28.7999L42.5943 28.8015C41.5628 28.8289 41.0687 29.2268 41.0687 29.95C41.0687 30.3001 41.1653 30.5001 41.3585 30.6999C41.5033 30.9 41.8898 31.1 42.4211 31.3L43.7737 31.8499C44.45 32.0999 44.9332 32.4501 45.223 32.7999C45.5128 33.2 45.6578 33.65 45.6578 34.2502C45.6578 35.1 45.3678 35.7501 44.74 36.25C44.1119 36.75 43.3391 37 42.3246 37C41.3585 37 40.489 36.8499 39.7161 36.5C39.5711 36.4501 39.4746 36.3499 39.4261 36.3C39.3779 36.2001 39.3296 36.1 39.3296 35.9501V35.4499C39.3296 35.2501 39.3779 35.15 39.5229 35.15L39.5672 35.1529C39.6618 35.1642 39.792 35.2071 39.9577 35.2501C40.7305 35.5001 41.5035 35.6 42.3246 35.6L42.4554 35.5969C42.9275 35.5746 43.3148 35.4332 43.5807 35.2501C43.8704 35.0501 44.0152 34.6999 44.0152 34.3001C44.0152 33.9999 43.9669 33.7999 43.7737 33.6001C43.5804 33.4001 43.2906 33.25 42.8076 33.0499L41.3585 32.5C40.1024 32 39.4744 31.1499 39.4744 29.9999C39.4744 29.2499 39.7644 28.5999 40.3439 28.1501C40.9237 27.7001 41.6965 27.4501 42.6144 27.4501ZM31.6974 27.7001C31.9389 27.7001 32.0354 27.8 32.0354 28.05V33.7C32.0354 34.3501 32.1321 34.8001 32.3737 35.1C32.6152 35.3999 33.0015 35.55 33.533 35.55L33.6869 35.5465C34.4567 35.5116 35.2267 35.2157 35.9964 34.6999V28.05C35.9964 27.8499 36.0932 27.7001 36.3829 27.7001H37.3975C37.639 27.7001 37.7355 27.8 37.7355 28.05V36.3C37.7355 36.55 37.639 36.6501 37.3975 36.6501H36.6727C36.5279 36.6501 36.4314 36.6501 36.3829 36.5999C36.2864 36.55 36.2382 36.5 36.2382 36.3499L36.1414 35.7501L35.9732 35.8731C34.9619 36.591 33.9093 36.9501 32.8567 36.9501C32.0354 36.9501 31.4076 36.7001 30.9726 36.25C30.538 35.8 30.3448 35.1 30.3448 34.2502V28.05C30.3448 27.8 30.4413 27.7001 30.6828 27.7001H31.6974ZM54.8359 27.5L55.0308 27.5054C55.555 27.5334 56.1133 27.6668 56.6715 27.8C56.768 27.8499 56.8646 27.9501 56.913 28C56.9613 28.05 57.0096 28.2001 57.0096 28.3501V28.8501C57.0096 29.1001 56.913 29.2 56.768 29.2L56.7292 29.1999C56.6558 29.199 56.6026 29.1929 56.4783 29.1501C56.0435 29 55.5605 28.95 55.0774 28.95L54.9191 28.9523C54.0367 28.9786 53.4109 29.2278 53.0003 29.7C52.5655 30.1999 52.3722 31.0001 52.324 32.0999V32.3499C52.324 33.4001 52.5173 34.2 52.952 34.6999C53.3868 35.1999 54.0631 35.4499 54.9807 35.4499L55.1641 35.4453C55.5968 35.4241 56.0616 35.3312 56.5265 35.1999C56.6233 35.15 56.7198 35.15 56.768 35.15L56.8063 35.1525C56.9298 35.1694 57.0096 35.2726 57.0096 35.5001L57.0094 36.064C57.0086 36.1907 57.0027 36.3071 56.9613 36.3499C56.9131 36.4501 56.8165 36.5 56.6715 36.55C56.1402 36.8 55.4637 36.8999 54.7392 36.8999C53.3866 36.8999 52.3722 36.5 51.6477 35.7001C50.9231 34.9 50.5849 33.7499 50.5849 32.25C50.5849 30.7501 50.9714 29.5501 51.696 28.75C52.4688 27.9001 53.4833 27.5 54.8359 27.5ZM25.7072 27.4501C26.5285 27.4501 27.1083 27.7001 27.5431 28.1501C27.9776 28.5999 28.1709 29.2499 28.1709 30.1V36.3499C28.1709 36.5999 28.0744 36.7001 27.8329 36.7001H26.8183C26.5768 36.7001 26.4803 36.5999 26.4803 36.3499V30.6C26.4803 30.0002 26.3355 29.6001 26.1422 29.3001C25.949 29 25.6107 28.8501 25.1277 28.8501L24.9737 28.8531C24.2036 28.8825 23.431 29.1345 22.6158 29.65V36.3499C22.6158 36.5999 22.5193 36.7001 22.2777 36.7001H21.2632C21.0217 36.7001 20.9251 36.5999 20.9251 36.3499V30.6C20.9251 29.9999 20.7801 29.6001 20.5869 29.3001C20.3939 29 20.0556 28.8501 19.5726 28.8501L19.3993 28.8541C18.5935 28.891 17.827 29.1834 17.0606 29.65V36.4001C17.0606 36.6501 16.9639 36.75 16.7224 36.75H15.7081C15.4665 36.75 15.37 36.6501 15.37 36.4001V28.1002C15.37 27.8499 15.4665 27.75 15.7081 27.75L16.529 27.7503C16.6084 27.7514 16.6822 27.7584 16.7224 27.8C16.8191 27.8499 16.8674 27.9001 16.8674 28.05L16.9639 28.5999L17.1317 28.4844C18.1386 27.8089 19.1454 27.4501 20.1521 27.4501L20.2832 27.4522C21.2747 27.4842 21.9556 27.8854 22.326 28.7L22.493 28.5759C23.5529 27.8109 24.6519 27.4501 25.7072 27.4501ZM48.4595 27.7001C48.701 27.7001 48.7975 27.8499 48.7975 28.05V36.3499C48.7975 36.5999 48.701 36.7001 48.4595 36.7001H47.4449C47.2036 36.7001 47.1069 36.5999 47.1069 36.3499V28.05C47.1069 27.8 47.2036 27.7001 47.4449 27.7001H48.4595ZM47.9282 24L48.0281 24.003C48.3232 24.021 48.5753 24.1201 48.7493 24.2999C48.9425 24.45 48.9908 24.75 48.9908 25.0501C48.9908 25.3501 48.8943 25.6001 48.701 25.8001C48.5077 26.0001 48.2662 26.1 47.9282 26.1C47.5899 26.1 47.3484 26.0001 47.1552 25.8001C46.9619 25.65 46.8654 25.3501 46.8654 25.0501C46.8654 24.75 46.9619 24.5002 47.1552 24.2999C47.3484 24.1001 47.5899 24 47.9282 24Z" fill="url(#paint0_linear)"/>
<defs>
<linearGradient id="paint0_linear" x1="15" y1="50" x2="38.0242" y2="11.9216" gradientUnits="userSpaceOnUse">
<stop stop-color="#177CBD"/>
<stop offset="0.510417" stop-color="#289CC9"/>
<stop offset="1" stop-color="#2FCBEB"/>
</linearGradient>
</defs>
</svg>
