<?xml version="1.0" encoding="UTF-8" standalone="no"?>
<svg
   xmlns="http://www.w3.org/2000/svg"
   viewBox="0 0 36 36"
   fill="none">
  <rect
     width="36"
     height="36"
     rx="16"
     fill="white"
     id="rect60" />
  <path
     d="m 27.777774,23.044635 a 6.8942993,6.8942993 0 0 1 -0.817787,3.248036 6.9956338,6.9956338 0 0 1 -2.259581,2.496028 7.1351909,7.1351909 0 0 1 -6.53785,0.736009 7.0525233,7.0525233 0 0 1 -2.769809,-1.930689 6.9334108,6.9334108 0 0 1 -1.537795,-2.983144 6.8800769,6.8800769 0 0 1 0.04978,-3.346704 6.9387442,6.9387442 0 0 1 1.624907,-2.936922 l -4.7965,4.717386 L 8.222,20.569941 13.614949,15.301438 A 3.6853745,3.6853745 0 0 0 14.721628,12.62763 V 6.0000005 h 3.535151 v 6.6125185 a 6.9422998,6.9422998 0 0 1 -0.537784,2.794697 7.0169673,7.0169673 0 0 1 -1.616907,2.354693 L 15.943864,17.9148 a 7.116524,7.116524 0 0 1 3.617818,-1.720908 7.1609689,7.1609689 0 0 1 3.982267,0.499561 7.0569678,7.0569678 0 0 1 3.068479,2.557362 6.9280774,6.9280774 0 0 1 1.165346,3.79382 z m -3.203591,0 a 3.7858201,3.7858201 0 0 0 -0.634674,-2.131579 3.8578209,3.8578209 0 0 0 -1.728908,-1.422238 3.9147104,3.9147104 0 0 0 -2.237359,-0.231114 3.8844879,3.8844879 0 0 0 -1.990244,1.037345 3.8053759,3.8053759 0 0 0 -1.068456,1.955577 c -0.152002,0.742231 -0.07733,1.511128 0.213335,2.211581 a 3.8311539,3.8311539 0 0 0 1.424905,1.720019 c 0.637341,0.421338 1.386682,0.646229 2.152913,0.646229 a 3.8755989,3.8755989 0 0 0 1.478239,-0.278225 3.8382651,3.8382651 0 0 0 1.255125,-0.817787 c 0.360004,-0.352004 0.645341,-0.771564 0.840009,-1.232903 a 3.7333751,3.7333751 0 0 0 0.295115,-1.456905 z"
     style="fill:#01ff94;stroke-width:0.88889885" />
</svg>
