<svg width="64" height="64" viewBox="0 0 64 64" fill="none" xmlns="http://www.w3.org/2000/svg">
<rect width="64" height="64" rx="20" fill="white"/>
<g clip-path="url(#clip0)">
<path d="M47.9999 22V25.8763H41.082V22H47.9999Z" fill="#40AB5D"/>
<path d="M47.9999 27.3726V31.2489H41.082V27.3726H47.9999Z" fill="url(#paint0_linear)"/>
<path d="M47.9999 32.7483V36.6246H41.082V32.7483H47.9999Z" fill="url(#paint1_linear)"/>
<path d="M22.9179 38.1243V42.0006H16V38.1243H22.9179Z" fill="url(#paint2_linear)"/>
<path d="M31.2746 38.1243V42.0006H24.3535V38.1243H31.2746Z" fill="url(#paint3_linear)"/>
<path d="M39.6457 38.1243V42.0006H32.7246V38.1243H39.6457Z" fill="url(#paint4_linear)"/>
<path d="M47.9999 38.1243V42.0006H41.082V38.1243H47.9999Z" fill="url(#paint5_linear)"/>
<path d="M39.6457 32.7483V36.6246H32.7246V32.7483H39.6457Z" fill="url(#paint6_linear)"/>
<path d="M31.2746 32.7483V36.6246H24.3535V32.7483H31.2746Z" fill="url(#paint7_linear)"/>
<path d="M31.2746 27.3726V31.2489H24.3535V27.3726H31.2746Z" fill="url(#paint8_linear)"/>
</g>
<defs>
<linearGradient id="paint0_linear" x1="44.5755" y1="31.2851" x2="44.5148" y2="27.3152" gradientUnits="userSpaceOnUse">
<stop stop-color="#358C7B"/>
<stop offset="0.5256" stop-color="#33A65E"/>
</linearGradient>
<linearGradient id="paint1_linear" x1="40.9779" y1="36.4254" x2="47.9733" y2="32.705" gradientUnits="userSpaceOnUse">
<stop stop-color="#222B90"/>
<stop offset="1" stop-color="#367B99"/>
</linearGradient>
<linearGradient id="paint2_linear" x1="16" y1="40.0634" x2="22.9147" y2="40.0634" gradientUnits="userSpaceOnUse">
<stop stop-color="#FF9900"/>
<stop offset="1" stop-color="#FF8000"/>
</linearGradient>
<linearGradient id="paint3_linear" x1="24.3629" y1="40.0634" x2="31.2744" y2="40.0634" gradientUnits="userSpaceOnUse">
<stop stop-color="#FF8000"/>
<stop offset="1" stop-color="#CC1953"/>
</linearGradient>
<linearGradient id="paint4_linear" x1="32.7247" y1="40.0634" x2="39.6363" y2="40.0634" gradientUnits="userSpaceOnUse">
<stop stop-color="#CC1953"/>
<stop offset="1" stop-color="#241284"/>
</linearGradient>
<linearGradient id="paint5_linear" x1="41.0756" y1="40.0634" x2="47.9903" y2="40.0634" gradientUnits="userSpaceOnUse">
<stop stop-color="#222B90"/>
<stop offset="1" stop-color="#3559A6"/>
</linearGradient>
<linearGradient id="paint6_linear" x1="32.4506" y1="35.7316" x2="39.8576" y2="33.4712" gradientUnits="userSpaceOnUse">
<stop stop-color="#CC1953"/>
<stop offset="1" stop-color="#241284"/>
</linearGradient>
<linearGradient id="paint7_linear" x1="24.114" y1="33.3967" x2="31.4425" y2="36.1832" gradientUnits="userSpaceOnUse">
<stop offset="0.0026698" stop-color="#FFCC00"/>
<stop offset="0.9999" stop-color="#CE1938"/>
</linearGradient>
<linearGradient id="paint8_linear" x1="24.9425" y1="26.7723" x2="30.465" y2="32.0909" gradientUnits="userSpaceOnUse">
<stop offset="0.0026698" stop-color="#FFD100"/>
<stop offset="1" stop-color="#FD5A22"/>
</linearGradient>
<clipPath id="clip0">
<rect width="32" height="20" fill="white" transform="translate(16 22)"/>
</clipPath>
</defs>
</svg>
