<svg width="48" height="48" viewBox="0 0 48 48" fill="none" xmlns="http://www.w3.org/2000/svg">
<rect width="48" height="48" rx="16" fill="white"/>
<path fill-rule="evenodd" clip-rule="evenodd" d="M16.1415 12.6294C15.3512 12.9368 14.6829 13.3466 14.0146 14.015C13.3463 14.6786 12.9366 15.3519 12.6293 16.1374C12.3317 16.8986 12.1317 17.7719 12.0732 19.0502C12.0146 20.3285 12 20.7384 12 23.9976C12 27.2568 12.0146 27.6666 12.0732 28.9449C12.1317 30.2232 12.3366 31.0966 12.6293 31.8577C12.9366 32.6481 13.3463 33.3165 14.0146 33.985C14.6829 34.6534 15.3512 35.0632 16.1415 35.3706C16.9024 35.6682 17.7756 35.8683 19.0537 35.9268C20.3317 35.9854 20.7415 36 24 36C27.2585 36 27.6683 35.9854 28.9463 35.9268C30.2244 35.8683 31.0976 35.6633 31.8585 35.3706C32.6488 35.0632 33.3171 34.6534 33.9854 33.985C34.6537 33.3165 35.0634 32.6481 35.3707 31.8577C35.6683 31.0966 35.8683 30.2232 35.9268 28.9449C35.9854 27.6666 36 27.2568 36 23.9976C36 20.7384 35.9854 20.3285 35.9268 19.0502C35.8683 17.7719 35.6634 16.8986 35.3707 16.1374C35.0634 15.3519 34.6537 14.6786 33.9902 14.015C33.3219 13.3466 32.6537 12.9368 31.8634 12.6294C31.1024 12.3318 30.2293 12.1317 28.9512 12.0732C27.6732 12.0146 27.2634 12 24.0049 12C20.7463 12 20.3366 12.0146 19.0585 12.0732C17.7756 12.1269 16.9024 12.3318 16.1415 12.6294ZM28.8488 14.2297C30.0195 14.2834 30.6537 14.4786 31.078 14.6444C31.639 14.864 32.039 15.1226 32.4585 15.5422C32.878 15.9618 33.1366 16.3619 33.3561 16.923C33.5219 17.3474 33.7171 17.9817 33.7707 19.1527C33.8293 20.4163 33.839 20.7969 33.839 24.0024C33.839 27.208 33.8244 27.5885 33.7707 28.8522C33.7171 30.0232 33.5219 30.6574 33.3561 31.0819C33.1366 31.643 32.878 32.0431 32.4585 32.4627C32.039 32.8823 31.639 33.1409 31.078 33.3604C30.6537 33.5263 30.0195 33.7215 28.8488 33.7752C27.5854 33.8337 27.2049 33.8435 24 33.8435C20.7951 33.8435 20.4146 33.8288 19.1512 33.7752C17.9805 33.7215 17.3463 33.5263 16.922 33.3604C16.361 33.1409 15.961 32.8823 15.5415 32.4627C15.122 32.0431 14.8634 31.643 14.6439 31.0819C14.478 30.6574 14.2829 30.0232 14.2293 28.8522C14.1707 27.5885 14.161 27.208 14.161 24.0024C14.161 20.7969 14.1756 20.4163 14.2293 19.1527C14.2829 17.9817 14.478 17.3474 14.6439 16.923C14.8634 16.3619 15.122 15.9618 15.5415 15.5422C15.961 15.1226 16.361 14.864 16.922 14.6444C17.3463 14.4786 17.9805 14.2834 19.1512 14.2297C20.4146 14.1712 20.7951 14.1614 24 14.1614C27.2049 14.1614 27.5854 14.1712 28.8488 14.2297ZM17.8364 24.0025C17.8364 27.4081 20.5974 30.1648 23.9974 30.1648C27.3974 30.1648 30.1584 27.4032 30.1584 24.0025C30.1584 20.6018 27.4023 17.8403 23.9974 17.8403C20.5925 17.8403 17.8364 20.597 17.8364 24.0025ZM27.9974 24.0025C27.9974 26.2127 26.2072 28.0033 23.9974 28.0033C21.7877 28.0033 19.9974 26.2127 19.9974 24.0025C19.9974 21.7923 21.7877 20.0017 23.9974 20.0017C26.2072 20.0017 27.9974 21.7923 27.9974 24.0025ZM31.8508 17.5962C31.8508 18.3911 31.2065 19.0355 30.4118 19.0355C29.617 19.0355 28.9727 18.3911 28.9727 17.5962C28.9727 16.8013 29.617 16.1569 30.4118 16.1569C31.2065 16.1569 31.8508 16.8013 31.8508 17.5962Z" fill="url(#paint0_radial)"/>
<defs>
<radialGradient id="paint0_radial" cx="0" cy="0" r="1" gradientUnits="userSpaceOnUse" gradientTransform="translate(12.4367 33.8027) rotate(-3.0007) scale(34.6983 29.4991)">
<stop stop-color="#FED576"/>
<stop offset="0.2634" stop-color="#F47133"/>
<stop offset="0.6091" stop-color="#BC3081"/>
<stop offset="1" stop-color="#4C63D2"/>
</radialGradient>
</defs>
</svg>
