<?xml version="1.0" encoding="UTF-8" standalone="no"?>
<!-- Generator: Adobe Illustrator 20.1.0, SVG Export Plug-In . SVG Version: 6.00 Build 0)  -->

<svg
   xmlns:dc="http://purl.org/dc/elements/1.1/"
   xmlns:cc="http://creativecommons.org/ns#"
   xmlns:rdf="http://www.w3.org/1999/02/22-rdf-syntax-ns#"
   xmlns:svg="http://www.w3.org/2000/svg"
   xmlns="http://www.w3.org/2000/svg"
   xmlns:sodipodi="http://sodipodi.sourceforge.net/DTD/sodipodi-0.dtd"
   xmlns:inkscape="http://www.inkscape.org/namespaces/inkscape"
   version="1.1"
   x="0px"
   y="0px"
   viewBox="0 0 64 64"
   enable-background="new 0 0 125 40"
   xml:space="preserve"
   id="svg144"
   sodipodi:docname="napster.svg"
   width="64"
   height="64"
   inkscape:version="0.92.5 (2060ec1f9f, 2020-04-08)"><defs
     id="defs148">
			
			
			
			
			
		</defs><sodipodi:namedview
     pagecolor="#ffffff"
     bordercolor="#666666"
     borderopacity="1"
     objecttolerance="10"
     gridtolerance="10"
     guidetolerance="10"
     inkscape:pageopacity="0"
     inkscape:pageshadow="2"
     inkscape:window-width="1920"
     inkscape:window-height="966"
     id="namedview146"
     showgrid="false"
     inkscape:zoom="3.9541411"
     inkscape:cx="-9.489518"
     inkscape:cy="-4.3160686"
     inkscape:window-x="0"
     inkscape:window-y="27"
     inkscape:window-maximized="1"
     inkscape:current-layer="svg144" /><g
     id="icons"
     transform="translate(0,24)"><g
       id="g141"><rect
         style="fill:#ffffff;stroke-width:0.90219408"
         id="rect357"
         width="64"
         height="64"
         x="0"
         y="-24"
         ry="0" /><g
         id="g172"
         transform="matrix(0.91948739,0,0,0.90909091,16,-10.181818)"><path
           d="m 20.929,27.481 c -0.994,0.955 -2.197,1.693 -3.533,2.142 -1.336,-0.448 -2.539,-1.187 -3.533,-2.142 z"
           id="path127"
           inkscape:connector-curvature="0"
           style="fill:#111111" /><path
           d="M 10.771,13.472 C 9.373,12.292 7.711,11.403 5.892,10.917 L 5.89,21.824 v 0.442 c 0,6.363 5.135,11.435 11.512,11.435 6.378,0 11.503,-5.094 11.503,-11.457 v -0.55 l 10e-4,-10.767 c -1.825,0.489 -3.484,1.355 -4.884,2.542 -1.873,-1.32 -4.158,-2.096 -6.624,-2.096 -2.468,-10e-4 -4.753,0.776 -6.627,2.099 z m 0.03,-3.313 c 1.974,-1.026 4.217,-1.606 6.596,-1.606 2.376,0 4.616,0.578 6.588,1.602 0.465,-0.294 0.946,-0.563 1.443,-0.807 -2.105,-1.956 -4.925,-3.152 -8.024,-3.152 -3.106,0 -5.931,1.201 -8.037,3.163 0.454,0.225 0.993,0.525 1.434,0.8 z M 6.624,8.321 C 9.276,5.359 13.128,3.5 17.418,3.5 c 4.285,0 8.132,1.856 10.785,4.813 1.127,-0.302 2.301,-0.48 3.514,-0.516 v 4.856 c 1.853,1.153 3.085,3.208 3.085,5.55 0,2.347 -1.238,4.405 -3.097,5.556 l -0.02,0.121 C 30.91,31.025 24.759,36.5 17.355,36.5 9.949,36.5 3.854,30.927 3.085,23.774 1.231,22.596 0,20.543 0,18.202 0,15.863 1.229,13.813 3.076,12.659 V 7.795 c 1.229,0.036 2.408,0.219 3.548,0.526 z"
           id="path129"
           inkscape:connector-curvature="0"
           style="fill:#111111" /><g
           id="g135">
				<path
   d="m 20.975,22.276 c 1.918,-0.218 5.138,-0.193 5.138,-0.193 -0.053,0.574 0.008,2.268 -1.839,3.328 -0.306,0.176 -1.069,0.423 -1.788,0.456 -1.773,0.08 -4.301,0.103 -4.301,0.103 0.447,-2.012 1.187,-3.512 2.79,-3.694 z"
   id="path131"
   inkscape:connector-curvature="0"
   style="fill:#111111" />
				<path
   d="m 13.816,22.276 c 1.602,0.182 2.343,1.682 2.789,3.694 0,0 -2.528,-0.022 -4.301,-0.103 -0.719,-0.033 -1.482,-0.281 -1.788,-0.456 -1.847,-1.059 -1.786,-2.753 -1.839,-3.328 0.001,0 3.22,-0.025 5.139,0.193 z"
   id="path133"
   inkscape:connector-curvature="0"
   style="fill:#111111" />
			</g><path
           d="m 20.773,31.368 c -0.967,0.584 -2.127,0.925 -3.375,0.925 -1.248,0 -2.408,-0.341 -3.376,-0.925 0,0 0.064,-0.38 0.262,-0.672 0.243,-0.357 0.449,-0.46 0.449,-0.46 0.825,0.241 1.723,0.373 2.664,0.373 0.94,0 1.839,-0.132 2.664,-0.373 0,0 0.254,0.138 0.482,0.511 0.21,0.344 0.23,0.621 0.23,0.621 z"
           id="path137"
           inkscape:connector-curvature="0"
           style="fill:#111111" /></g></g></g><metadata
     id="metadata359"><rdf:RDF><cc:Work
         rdf:about=""><dc:title></dc:title></cc:Work></rdf:RDF></metadata></svg>