<?xml version="1.0" encoding="UTF-8"?>
<!DOCTYPE svg PUBLIC "-//W3C//DTD SVG 1.1//EN" "http://www.w3.org/Graphics/SVG/1.1/DTD/svg11.dtd">
<svg xmlns="http://www.w3.org/2000/svg" version="1.1" width="1250px" height="1250px" style="shape-rendering:geometricPrecision; text-rendering:geometricPrecision; image-rendering:optimizeQuality; fill-rule:evenodd; clip-rule:evenodd" xmlns:xlink="http://www.w3.org/1999/xlink">
<g><path style="opacity:0.049" fill="#000000" d="M 543.5,417.5 C 597.501,417.333 651.501,417.5 705.5,418C 779.165,440.664 830.998,487.498 861,558.5C 863.62,565.405 865.953,572.405 868,579.5C 868.667,634.5 868.667,689.5 868,744.5C 846.182,816.988 800.016,867.154 729.5,895C 731.5,895.333 733.5,895.667 735.5,896C 726.319,899.727 716.985,903.061 707.5,906C 652.167,906.667 596.833,906.667 541.5,906C 532.269,903.257 523.269,899.923 514.5,896C 516.167,895.667 517.833,895.333 519.5,895C 448.705,866.895 402.538,816.729 381,744.5C 380.333,689.5 380.333,634.5 381,579.5C 400.394,515.443 439.561,467.609 498.5,436C 513.157,428.733 528.157,422.566 543.5,417.5 Z"/></g>
<g><path style="opacity:1" fill="#14162d" d="M 616.5,467.5 C 682.972,467.468 732.472,496.135 765,553.5C 782.848,591.117 786.514,630.117 776,670.5C 753.996,735.826 708.829,773.66 640.5,784C 572.838,788.256 521.338,761.756 486,704.5C 457.811,649.934 458.811,595.934 489,542.5C 519.225,496.798 561.725,471.798 616.5,467.5 Z"/></g>
<g><path style="opacity:1" fill="#4c6aad" d="M 621.5,563.5 C 620.597,566.656 620.264,569.656 620.5,572.5C 615.029,569.597 609.696,566.43 604.5,563C 603.072,562.421 601.738,562.588 600.5,563.5C 600.082,562.778 599.416,562.278 598.5,562C 599.5,561.667 600.5,561.333 601.5,561C 600.776,558.33 599.109,556.83 596.5,556.5C 598.858,553.764 601.858,552.93 605.5,554C 611.062,556.941 616.395,560.108 621.5,563.5 Z"/></g>
<g><path style="opacity:1" fill="#5756ae" d="M 596.5,556.5 C 599.109,556.83 600.776,558.33 601.5,561C 600.5,561.333 599.5,561.667 598.5,562C 599.416,562.278 600.082,562.778 600.5,563.5C 595.666,566.752 590.666,569.752 585.5,572.5C 584.047,571.175 584.381,570.342 586.5,570C 584.531,568.074 582.198,566.908 579.5,566.5C 584.665,562.414 590.332,559.08 596.5,556.5 Z"/></g>
<g><path style="opacity:1" fill="#14162d" d="M 620.5,572.5 C 625.139,575.155 629.806,577.821 634.5,580.5C 635.499,592.815 635.832,605.149 635.5,617.5C 632.167,619.833 628.833,622.167 625.5,624.5C 621.345,625.742 617.678,627.742 614.5,630.5C 611.06,632.055 607.727,633.888 604.5,636C 603.072,636.579 601.738,636.412 600.5,635.5C 590.5,629.833 580.5,624.167 570.5,618.5C 570.5,611.5 570.5,604.5 570.5,597.5C 570.171,591.794 570.505,586.128 571.5,580.5C 573.813,579.5 575.813,578.166 577.5,576.5C 580.14,575.18 582.807,573.847 585.5,572.5C 590.666,569.752 595.666,566.752 600.5,563.5C 601.738,562.588 603.072,562.421 604.5,563C 609.696,566.43 615.029,569.597 620.5,572.5 Z"/></g>
<g><path style="opacity:1" fill="#13162d" d="M 718.5,592.5 C 718.831,601.192 718.498,609.859 717.5,618.5C 710.77,622.526 704.103,626.526 697.5,630.5C 693.798,632.69 689.965,634.69 686,636.5C 675.57,630.369 665.07,624.369 654.5,618.5C 654.333,605.829 654.5,593.162 655,580.5C 663.98,575.267 672.813,569.933 681.5,564.5C 683.311,563.178 685.311,562.678 687.5,563C 697.664,568.581 707.664,574.414 717.5,580.5C 718.491,584.445 718.824,588.445 718.5,592.5 Z"/></g>
<g><path style="opacity:1" fill="#5d4cb0" d="M 579.5,566.5 C 582.198,566.908 584.531,568.074 586.5,570C 584.381,570.342 584.047,571.175 585.5,572.5C 582.807,573.847 580.14,575.18 577.5,576.5C 576.933,574.97 576.267,573.47 575.5,572C 573.82,572.771 572.153,572.605 570.5,571.5C 573.008,569.076 576.008,567.41 579.5,566.5 Z"/></g>
<g><path style="opacity:1" fill="#3791ac" d="M 671.5,561.5 C 673.844,562.672 676.177,562.672 678.5,561.5C 679.192,562.025 679.692,562.692 680,563.5C 681.107,562.288 681.607,562.621 681.5,564.5C 672.813,569.933 663.98,575.267 655,580.5C 654.5,593.162 654.333,605.829 654.5,618.5C 653.669,605.673 653.169,592.673 653,579.5C 652.085,580.328 651.419,581.328 651,582.5C 650.727,580.671 649.893,579.171 648.5,578C 650.036,576.532 650.37,575.032 649.5,573.5C 656.597,569.07 663.931,565.07 671.5,561.5 Z"/></g>
<g><path style="opacity:1" fill="#328a9f" d="M 726.5,621.5 C 726.768,611.97 726.435,602.47 725.5,593C 722.315,583.656 719.982,583.489 718.5,592.5C 718.824,588.445 718.491,584.445 717.5,580.5C 707.664,574.414 697.664,568.581 687.5,563C 685.311,562.678 683.311,563.178 681.5,564.5C 681.607,562.621 681.107,562.288 680,563.5C 679.692,562.692 679.192,562.025 678.5,561.5C 676.177,562.672 673.844,562.672 671.5,561.5C 676.198,558.164 681.198,555.164 686.5,552.5C 699.749,560.04 712.915,567.707 726,575.5C 727.136,583.401 727.636,591.401 727.5,599.5C 727.5,607.008 727.166,614.341 726.5,621.5 Z"/></g>
<g><path style="opacity:1" fill="#4689b8" d="M 621.5,563.5 C 629.054,567.194 636.221,571.527 643,576.5C 643.667,592.167 643.667,607.833 643,623.5C 642.005,624.066 641.172,624.733 640.5,625.5C 640.167,625.5 639.833,625.5 639.5,625.5C 638.587,623.914 638.587,622.414 639.5,621C 638.264,619.612 636.931,618.446 635.5,617.5C 635.832,605.149 635.499,592.815 634.5,580.5C 629.806,577.821 625.139,575.155 620.5,572.5C 620.264,569.656 620.597,566.656 621.5,563.5 Z"/></g>
<g><path style="opacity:1" fill="#6137a9" d="M 570.5,571.5 C 572.153,572.605 573.82,572.771 575.5,572C 576.267,573.47 576.933,574.97 577.5,576.5C 575.813,578.166 573.813,579.5 571.5,580.5C 570.505,586.128 570.171,591.794 570.5,597.5C 569.531,595.337 568.698,593.004 568,590.5C 567.667,590.833 567.333,591.167 567,591.5C 565.26,590.284 564.26,588.618 564,586.5C 562.624,595.098 562.124,603.765 562.5,612.5C 562.5,615.5 562.5,618.5 562.5,621.5C 561.339,606.672 561.172,591.672 562,576.5C 564.642,574.432 567.475,572.765 570.5,571.5 Z"/></g>
<g><path style="opacity:1" fill="#3799b2" d="M 726.5,621.5 C 725.969,623.624 724.635,625.124 722.5,626C 714.779,630.191 707.113,634.358 699.5,638.5C 694.342,637.516 694.342,636.683 699.5,636C 698.167,635.667 696.833,635.333 695.5,635C 697.65,633.808 698.317,632.308 697.5,630.5C 704.103,626.526 710.77,622.526 717.5,618.5C 718.498,609.859 718.831,601.192 718.5,592.5C 719.982,583.489 722.315,583.656 725.5,593C 726.435,602.47 726.768,611.97 726.5,621.5 Z"/></g>
<g><path style="opacity:1" fill="#7b31c6" d="M 570.5,597.5 C 570.5,604.5 570.5,611.5 570.5,618.5C 568.864,617.251 567.697,615.584 567,613.5C 566.667,613.833 566.333,614.167 566,614.5C 565.667,613.5 565.333,612.5 565,611.5C 564.329,612.252 563.496,612.586 562.5,612.5C 562.124,603.765 562.624,595.098 564,586.5C 564.26,588.618 565.26,590.284 567,591.5C 567.333,591.167 567.667,590.833 568,590.5C 568.698,593.004 569.531,595.337 570.5,597.5 Z"/></g>
<g><path style="opacity:1" fill="#5475be" d="M 635.5,617.5 C 636.931,618.446 638.264,619.612 639.5,621C 638.587,622.414 638.587,623.914 639.5,625.5C 636.634,627.432 633.634,629.099 630.5,630.5C 629.903,627.573 628.236,625.573 625.5,624.5C 628.833,622.167 632.167,619.833 635.5,617.5 Z"/></g>
<g><path style="opacity:1" fill="#6062c1" d="M 625.5,624.5 C 628.236,625.573 629.903,627.573 630.5,630.5C 627.322,633.258 623.655,635.258 619.5,636.5C 618.289,634.05 616.622,632.05 614.5,630.5C 617.678,627.742 621.345,625.742 625.5,624.5 Z"/></g>
<g><path style="opacity:1" fill="#911ad2" d="M 559.5,626.5 C 562.425,626.46 565.091,627.293 567.5,629C 578.5,635.5 589.5,642 600.5,648.5C 601.666,664.49 601.833,680.49 601,696.5C 599.855,697.636 598.688,698.636 597.5,699.5C 590.342,702.912 583.342,706.578 576.5,710.5C 574.914,709.587 573.414,709.587 572,710.5C 569.791,710.011 567.958,709.011 566.5,707.5C 575.187,702.067 584.02,696.733 593,691.5C 593.5,678.838 593.667,666.171 593.5,653.5C 582.507,647.917 571.673,641.917 561,635.5C 550.704,641.394 540.537,647.394 530.5,653.5C 528.52,665.789 527.853,678.456 528.5,691.5C 527.312,692.684 526.145,692.684 525,691.5C 524.105,688.417 523.105,685.417 522,682.5C 521.579,670.992 521.412,659.658 521.5,648.5C 534.167,641.167 546.833,633.833 559.5,626.5 Z"/></g>
<g><path style="opacity:1" fill="#842dce" d="M 570.5,618.5 C 580.5,624.167 590.5,629.833 600.5,635.5C 601.802,636.926 603.302,638.259 605,639.5C 605.414,639.043 605.914,638.709 606.5,638.5C 607.562,640.022 608.229,641.688 608.5,643.5C 606.54,645.484 604.207,646.317 601.5,646C 588.941,638.556 576.274,631.39 563.5,624.5C 562.89,623.609 562.557,622.609 562.5,621.5C 562.5,618.5 562.5,615.5 562.5,612.5C 563.496,612.586 564.329,612.252 565,611.5C 565.333,612.5 565.667,613.5 566,614.5C 566.333,614.167 566.667,613.833 567,613.5C 567.697,615.584 568.864,617.251 570.5,618.5 Z"/></g>
<g><path style="opacity:1" fill="#409abc" d="M 649.5,573.5 C 650.37,575.032 650.036,576.532 648.5,578C 649.893,579.171 650.727,580.671 651,582.5C 651.419,581.328 652.085,580.328 653,579.5C 653.169,592.673 653.669,605.673 654.5,618.5C 665.07,624.369 675.57,630.369 686,636.5C 689.965,634.69 693.798,632.69 697.5,630.5C 698.317,632.308 697.65,633.808 695.5,635C 696.833,635.333 698.167,635.667 699.5,636C 694.342,636.683 694.342,637.516 699.5,638.5C 694.896,642.641 689.563,644.807 683.5,645C 670.751,637.877 658.251,630.377 646,622.5C 645.333,607.167 645.333,591.833 646,576.5C 646.72,574.944 647.887,573.944 649.5,573.5 Z"/></g>
<g><path style="opacity:1" fill="#5572bd" d="M 638.5,629.5 C 639.5,629.5 640.5,629.5 641.5,629.5C 641.253,631.858 641.919,633.858 643.5,635.5C 640.992,637.924 637.992,639.59 634.5,640.5C 634.082,639.778 633.416,639.278 632.5,639C 632.5,637.667 632.5,636.333 632.5,635C 631.552,634.517 630.552,634.351 629.5,634.5C 632.24,632.44 635.24,630.774 638.5,629.5 Z"/></g>
<g><path style="opacity:1" fill="#5f61c0" d="M 629.5,634.5 C 630.552,634.351 631.552,634.517 632.5,635C 632.5,636.333 632.5,637.667 632.5,639C 633.416,639.278 634.082,639.778 634.5,640.5C 632.381,642.4 630.047,644.066 627.5,645.5C 628.752,641.382 627.085,639.049 622.5,638.5C 624.635,636.929 626.968,635.596 629.5,634.5 Z"/></g>
<g><path style="opacity:1" fill="#14162d" d="M 643.5,635.5 C 654.633,641.234 665.633,647.234 676.5,653.5C 676.5,666.167 676.5,678.833 676.5,691.5C 675.29,691.932 674.29,692.599 673.5,693.5C 666.968,696.929 660.634,700.596 654.5,704.5C 651.292,706.021 648.126,707.688 645,709.5C 642.747,708.623 640.581,707.623 638.5,706.5C 633.033,702.929 627.367,699.596 621.5,696.5C 618.777,694.719 615.943,693.052 613,691.5C 612.5,683.841 612.334,676.174 612.5,668.5C 612.173,663.456 612.506,658.456 613.5,653.5C 616.231,651.808 618.898,650.142 621.5,648.5C 623.5,647.5 625.5,646.5 627.5,645.5C 630.047,644.066 632.381,642.4 634.5,640.5C 637.992,639.59 640.992,637.924 643.5,635.5 Z"/></g>
<g><path style="opacity:1" fill="#14152d" d="M 566.5,707.5 C 564.255,708.635 561.922,709.135 559.5,709C 549.308,703.407 539.308,697.574 529.5,691.5C 529.187,678.754 529.52,666.087 530.5,653.5C 540.537,647.394 550.704,641.394 561,635.5C 571.673,641.917 582.507,647.917 593.5,653.5C 593.667,666.171 593.5,678.838 593,691.5C 584.02,696.733 575.187,702.067 566.5,707.5 Z"/></g>
<g><path style="opacity:1" fill="#6a54c5" d="M 622.5,638.5 C 627.085,639.049 628.752,641.382 627.5,645.5C 625.5,646.5 623.5,647.5 621.5,648.5C 619.836,647.257 618.669,645.59 618,643.5C 617.329,642.748 616.496,642.414 615.5,642.5C 617.635,640.929 619.968,639.596 622.5,638.5 Z"/></g>
<g><path style="opacity:1" fill="#4490bb" d="M 656.5,632.5 C 666.202,637.679 675.535,643.345 684.5,649.5C 683.628,653.184 681.461,654.184 678,652.5C 677.517,651.552 677.351,650.552 677.5,649.5C 669.94,646.737 663.273,642.237 657.5,636C 657.833,635.667 658.167,635.333 658.5,635C 657.049,635.263 655.716,635.096 654.5,634.5C 655.243,633.818 655.909,633.151 656.5,632.5 Z"/></g>
<g><path style="opacity:1" fill="#7338bd" d="M 615.5,642.5 C 616.496,642.414 617.329,642.748 618,643.5C 618.669,645.59 619.836,647.257 621.5,648.5C 618.898,650.142 616.231,651.808 613.5,653.5C 612.506,658.456 612.173,663.456 612.5,668.5C 611.769,663.145 611.102,657.645 610.5,652C 608.899,649.502 607.065,649.002 605,650.5C 604.5,665.496 604.333,680.496 604.5,695.5C 603.339,680.339 603.172,665.006 604,649.5C 607.473,646.516 611.306,644.183 615.5,642.5 Z"/></g>
<g><path style="opacity:1" fill="#4888bb" d="M 641.5,626.5 C 647.29,626.647 652.29,628.647 656.5,632.5C 655.909,633.151 655.243,633.818 654.5,634.5C 655.716,635.096 657.049,635.263 658.5,635C 658.167,635.333 657.833,635.667 657.5,636C 663.273,642.237 669.94,646.737 677.5,649.5C 677.351,650.552 677.517,651.552 678,652.5C 681.461,654.184 683.628,653.184 684.5,649.5C 685.479,652.625 685.813,655.958 685.5,659.5C 684.442,660.6 683.608,661.934 683,663.5C 681.933,662.809 680.766,662.309 679.5,662C 678.004,659.286 677.004,656.453 676.5,653.5C 665.633,647.234 654.633,641.234 643.5,635.5C 641.919,633.858 641.253,631.858 641.5,629.5C 640.5,629.5 639.5,629.5 638.5,629.5C 639.694,628.728 640.694,627.728 641.5,626.5 Z"/></g>
<g><path style="opacity:1" fill="#3e0b64" d="M 530.5,653.5 C 529.52,666.087 529.187,678.754 529.5,691.5C 529.167,691.5 528.833,691.5 528.5,691.5C 527.853,678.456 528.52,665.789 530.5,653.5 Z"/></g>
<g><path style="opacity:1" fill="#4b70ae" d="M 676.5,653.5 C 677.004,656.453 678.004,659.286 679.5,662C 680.766,662.309 681.933,662.809 683,663.5C 683.608,661.934 684.442,660.6 685.5,659.5C 685.829,672.011 685.495,684.345 684.5,696.5C 684.666,691.821 684.499,687.155 684,682.5C 681.49,681.891 679.49,680.558 678,678.5C 677.825,683.019 677.325,687.353 676.5,691.5C 676.5,678.833 676.5,666.167 676.5,653.5 Z"/></g>
<g><path style="opacity:1" fill="#5266b2" d="M 684.5,696.5 C 682.819,698.008 680.819,699.008 678.5,699.5C 678.64,697.876 677.973,696.71 676.5,696C 676.833,695.667 677.167,695.333 677.5,695C 676.437,693.812 675.103,693.312 673.5,693.5C 674.29,692.599 675.29,691.932 676.5,691.5C 677.325,687.353 677.825,683.019 678,678.5C 679.49,680.558 681.49,681.891 684,682.5C 684.499,687.155 684.666,691.821 684.5,696.5 Z"/></g>
<g><path style="opacity:1" fill="#8628cd" d="M 612.5,668.5 C 612.334,676.174 612.5,683.841 613,691.5C 615.943,693.052 618.777,694.719 621.5,696.5C 621.577,697.75 622.244,698.583 623.5,699C 623.167,699.333 622.833,699.667 622.5,700C 624.007,700.837 624.507,702.004 624,703.5C 621.973,703.014 619.807,703.014 617.5,703.5C 615.046,702.773 612.713,701.773 610.5,700.5C 608.131,699.31 606.131,697.643 604.5,695.5C 604.333,680.496 604.5,665.496 605,650.5C 607.065,649.002 608.899,649.502 610.5,652C 611.102,657.645 611.769,663.145 612.5,668.5 Z"/></g>
<g><path style="opacity:1" fill="#1c163a" d="M 563.5,624.5 C 576.274,631.39 588.941,638.556 601.5,646C 604.207,646.317 606.54,645.484 608.5,643.5C 612.372,641.403 616.039,639.069 619.5,636.5C 623.655,635.258 627.322,633.258 630.5,630.5C 633.634,629.099 636.634,627.432 639.5,625.5C 639.833,625.5 640.167,625.5 640.5,625.5C 640.5,626.167 640.833,626.5 641.5,626.5C 640.694,627.728 639.694,628.728 638.5,629.5C 635.24,630.774 632.24,632.44 629.5,634.5C 626.968,635.596 624.635,636.929 622.5,638.5C 619.968,639.596 617.635,640.929 615.5,642.5C 611.306,644.183 607.473,646.516 604,649.5C 603.172,665.006 603.339,680.339 604.5,695.5C 606.131,697.643 608.131,699.31 610.5,700.5C 609.504,700.414 608.671,700.748 608,701.5C 607.333,700.833 606.667,700.167 606,699.5C 603.175,699.605 600.342,699.605 597.5,699.5C 598.688,698.636 599.855,697.636 601,696.5C 601.833,680.49 601.666,664.49 600.5,648.5C 589.5,642 578.5,635.5 567.5,629C 565.091,627.293 562.425,626.46 559.5,626.5C 560.833,625.833 562.167,625.167 563.5,624.5 Z"/></g>
<g><path style="opacity:1" fill="#7246c6" d="M 614.5,630.5 C 616.622,632.05 618.289,634.05 619.5,636.5C 616.039,639.069 612.372,641.403 608.5,643.5C 608.229,641.688 607.562,640.022 606.5,638.5C 605.914,638.709 605.414,639.043 605,639.5C 603.302,638.259 601.802,636.926 600.5,635.5C 601.738,636.412 603.072,636.579 604.5,636C 607.727,633.888 611.06,632.055 614.5,630.5 Z"/></g>
<g><path style="opacity:1" fill="#5c51b2" d="M 673.5,693.5 C 675.103,693.312 676.437,693.812 677.5,695C 677.167,695.333 676.833,695.667 676.5,696C 677.973,696.71 678.64,697.876 678.5,699.5C 672.666,703.921 666.332,707.588 659.5,710.5C 658.047,709.175 658.381,708.342 660.5,708C 659.151,707.228 658.318,706.061 658,704.5C 656.855,705.684 655.688,705.684 654.5,704.5C 660.634,700.596 666.968,696.929 673.5,693.5 Z"/></g>
<g><path style="opacity:1" fill="#7333bc" d="M 621.5,696.5 C 627.367,699.596 633.033,702.929 638.5,706.5C 637.527,708.068 637.36,709.735 638,711.5C 638.957,709.291 640.124,709.457 641.5,712C 638.518,712.498 635.518,712.665 632.5,712.5C 627.216,709.863 622.216,706.863 617.5,703.5C 619.807,703.014 621.973,703.014 624,703.5C 624.507,702.004 624.007,700.837 622.5,700C 622.833,699.667 623.167,699.333 623.5,699C 622.244,698.583 621.577,697.75 621.5,696.5 Z"/></g>
<g><path style="opacity:1" fill="#890dc0" d="M 521.5,648.5 C 521.412,659.658 521.579,670.992 522,682.5C 523.105,685.417 524.105,688.417 525,691.5C 526.145,692.684 527.312,692.684 528.5,691.5C 528.833,691.5 529.167,691.5 529.5,691.5C 539.308,697.574 549.308,703.407 559.5,709C 561.922,709.135 564.255,708.635 566.5,707.5C 567.958,709.011 569.791,710.011 572,710.5C 573.414,709.587 574.914,709.587 576.5,710.5C 571.751,714.052 566.585,717.052 561,719.5C 547.552,712.107 534.218,704.44 521,696.5C 520.172,680.328 520.339,664.328 521.5,648.5 Z"/></g>
<g><path style="opacity:1" fill="#683db4" d="M 654.5,704.5 C 655.688,705.684 656.855,705.684 658,704.5C 658.318,706.061 659.151,707.228 660.5,708C 658.381,708.342 658.047,709.175 659.5,710.5C 654.923,714.227 649.757,716.894 644,718.5C 639.663,717.415 635.83,715.415 632.5,712.5C 635.518,712.665 638.518,712.498 641.5,712C 640.124,709.457 638.957,709.291 638,711.5C 637.36,709.735 637.527,708.068 638.5,706.5C 640.581,707.623 642.747,708.623 645,709.5C 648.126,707.688 651.292,706.021 654.5,704.5 Z"/></g>
</svg>
