<svg width="72" height="72" viewBox="0 0 72 72" fill="none" xmlns="http://www.w3.org/2000/svg">
<rect width="72" height="72" rx="20" fill="white"/>
<g clip-path="url(#clip0)">
<path d="M36.0007 16C24.9557 16 15.999 24.9517 15.999 36C15.999 47.0417 24.9557 56 36.0007 56C47.0457 56 56.0007 47.0417 56.0007 36C56.0007 24.9517 47.0457 16 36.0007 16ZM32.454 43.8933C30.309 43.8933 28.1657 43.1833 26.519 41.7583C24.4957 40.01 23.2957 37.6267 23.1374 35.0517C22.9874 32.5533 23.8374 30.145 25.5307 28.2733C27.434 26.1683 30.8457 22.8983 30.989 22.7583C31.914 21.8717 33.3807 21.9067 34.2657 22.8333C35.149 23.7617 35.119 25.2317 34.1924 26.1183C34.1574 26.1517 30.7574 29.4117 28.964 31.3917C28.1174 32.3317 27.6907 33.53 27.7657 34.77C27.8474 36.085 28.479 37.3183 29.549 38.2467C30.9557 39.4633 33.7324 39.7317 35.4707 38.175C36.5024 37.2433 37.7574 35.88 37.7707 35.865C38.6374 34.92 40.104 34.86 41.0457 35.73C41.9874 36.5967 42.0507 38.0667 41.184 39.0117C41.1257 39.07 39.764 40.5517 38.564 41.6317C36.889 43.135 34.6707 43.8933 32.454 43.8933ZM46.4707 43.7283C44.5657 45.8317 41.1557 49.1033 41.0107 49.2433C40.5607 49.67 39.9857 49.885 39.4107 49.885C38.7974 49.885 38.1907 49.6433 37.734 49.1683C36.849 48.2367 36.8807 46.77 37.8074 45.8833C37.8424 45.85 41.2457 42.5883 43.0357 40.6067C43.8824 39.6683 44.309 38.4683 44.234 37.2283C44.154 35.9133 43.5207 34.68 42.4507 33.755C41.044 32.5383 38.2674 32.2667 36.5307 33.8283C35.4957 34.755 34.2424 36.1217 34.2307 36.135C33.3624 37.0783 31.899 37.1417 30.954 36.275C30.014 35.4067 29.9474 33.935 30.8174 32.99C30.874 32.9283 32.234 31.4467 33.4357 30.3683C36.734 27.405 42.1374 27.3467 45.4807 30.24C47.504 31.9917 48.7057 34.3733 48.8607 36.9483C49.014 39.4433 48.1623 41.8567 46.4707 43.7283Z" fill="#0088FF"/>
</g>
<defs>
<clipPath id="clip0">
<rect width="40" height="40" fill="white" transform="translate(16 16)"/>
</clipPath>
</defs>
</svg>
