<svg width="96" height="96" viewBox="0 0 96 96" fill="none" xmlns="http://www.w3.org/2000/svg">
<rect width="96" height="96" rx="24" fill="white"/>
<path d="M48 24C34.8 24 24 34.8 24 48C24 61.2 34.8 72 48 72C61.2 72 72 61.2 72 48C72 34.8 61.32 24 48 24ZM59.042 58.68C58.562 59.398 57.722 59.64 57 59.16C51.36 55.68 44.28 54.958 35.878 56.878C35.042 57.122 34.32 56.52 34.08 55.8C33.84 54.958 34.44 54.24 35.16 54C44.28 51.958 52.2 52.8 58.44 56.64C59.28 57 59.398 57.958 59.042 58.68ZM61.922 52.08C61.32 52.92 60.24 53.28 59.398 52.68C52.92 48.72 43.08 47.52 35.52 49.92C34.562 50.16 33.48 49.68 33.24 48.72C33 47.76 33.48 46.678 34.44 46.438C43.2 43.8 54 45.122 61.44 49.68C62.162 50.042 62.52 51.24 61.922 52.08ZM62.162 45.36C54.48 40.8 41.64 40.32 34.32 42.602C33.12 42.96 31.92 42.24 31.56 41.16C31.2 39.958 31.92 38.76 33 38.398C41.52 35.878 55.56 36.358 64.442 41.64C65.52 42.24 65.88 43.68 65.28 44.76C64.682 45.602 63.24 45.958 62.162 45.36Z" fill="#1ED760"/>
</svg>
