<svg width="80" height="80" viewBox="0 0 80 80" fill="none" xmlns="http://www.w3.org/2000/svg">
<rect width="80" height="80" rx="24" fill="white"/>
<path d="M40.8407 21.6973C42.9349 21.6667 45.0131 21.682 47.0914 21.6667C47.2193 24.0042 48.0985 26.3875 49.889 28.0375C51.6795 29.7333 54.2054 30.5125 56.6673 30.7722V36.9291C54.3653 36.8527 52.0472 36.3943 49.953 35.4471C49.0417 35.0499 48.1945 34.5458 47.3632 34.0263C47.3472 38.4874 47.3792 42.9484 47.3312 47.3942C47.2033 49.5331 46.4679 51.6566 45.173 53.4136C43.0788 56.3469 39.4498 58.2566 35.725 58.3177C33.4389 58.4399 31.1528 57.8441 29.2025 56.7441C25.9732 54.926 23.7031 51.5955 23.3674 48.0206C23.3354 47.2567 23.3194 46.4928 23.3514 45.7442C23.6392 42.8415 25.1419 40.061 27.4759 38.1665C30.1297 35.9666 33.8386 34.9124 37.3076 35.5388C37.3396 37.7999 37.2437 40.061 37.2437 42.322C35.661 41.8332 33.8066 41.9707 32.4158 42.8873C31.4086 43.5137 30.6413 44.4762 30.2416 45.5609C29.9059 46.34 30.0018 47.1956 30.0178 48.0206C30.4015 50.5261 32.9273 52.6344 35.6131 52.4053C37.4036 52.39 39.1141 51.3969 40.0413 49.9456C40.3451 49.4414 40.6808 48.922 40.6968 48.3261C40.8566 45.5914 40.7927 42.872 40.8087 40.1373C40.8247 33.9805 40.7927 27.8389 40.8407 21.6973Z" fill="black"/>
</svg>
