<svg width="64" height="64" viewBox="0 0 64 64" fill="none" xmlns="http://www.w3.org/2000/svg">
<rect width="64" height="64" rx="20" fill="white"/>
<path d="M32 16C23.168 16 16 23.168 16 32C16 40.832 23.168 48 32 48C40.832 48 48 40.832 48 32C48 23.168 40.832 16 32 16ZM32 41.472C26.768 41.472 22.528 37.232 22.528 32C22.528 26.768 26.768 22.528 32 22.528C37.232 22.528 41.472 26.768 41.472 32C41.472 37.232 37.232 41.472 32 41.472ZM32 23.696C27.424 23.696 23.696 27.424 23.696 32C23.696 36.576 27.424 40.304 32 40.304C36.576 40.304 40.304 36.576 40.304 32C40.304 27.424 36.576 23.696 32 23.696ZM28.912 36.72V27.28L37.088 32L28.912 36.72Z" fill="#FF0000"/>
</svg>
